<svg width="58" height="58" viewBox="0 0 58 58" fill="none" xmlns="http://www.w3.org/2000/svg">
<g clip-path="url(#clip0_1_2)">
<path d="M46.646 0H10.673C4.77847 0 0 4.77847 0 10.673V46.646C0 52.5405 4.77847 57.319 10.673 57.319H46.646C52.5405 57.319 57.319 52.5405 57.319 46.646V10.673C57.319 4.77847 52.5405 0 46.646 0Z" fill="white"/>
<path d="M46.646 57.319H10.674C7.84421 57.3158 5.13123 56.1903 3.13019 54.1895C1.12914 52.1886 0.00344077 49.4758 0 46.646V10.674C0.00317615 7.84403 1.12878 5.13093 3.12985 3.12985C5.13093 1.12878 7.84403 0.00317615 10.674 0H46.646C49.4759 0.00317615 52.1891 1.12878 54.1902 3.12985C56.1912 5.13093 57.3168 7.84403 57.32 10.674V46.646C57.3168 49.4758 56.1912 52.1889 54.1901 54.1898C52.189 56.1907 49.4758 57.3161 46.646 57.319ZM10.674 3.67398C8.81812 3.6761 7.03889 4.4143 5.72659 5.72659C4.4143 7.03889 3.6761 8.81812 3.67398 10.674V46.646C3.6761 48.5019 4.4143 50.2811 5.72659 51.5934C7.03889 52.9057 8.81812 53.6439 10.674 53.646H46.646C48.5019 53.6439 50.2811 52.9057 51.5934 51.5934C52.9057 50.2811 53.6439 48.5019 53.646 46.646V10.674C53.6439 8.81812 52.9057 7.03889 51.5934 5.72659C50.2811 4.4143 48.5019 3.6761 46.646 3.67398H10.674Z" fill="black"/>
<path d="M14.731 21.95C17.2798 21.95 19.346 19.8838 19.346 17.335C19.346 14.7862 17.2798 12.72 14.731 12.72C12.1822 12.72 10.116 14.7862 10.116 17.335C10.116 19.8838 12.1822 21.95 14.731 21.95Z" fill="black"/>
<path d="M42.589 21.95C45.1378 21.95 47.204 19.8838 47.204 17.335C47.204 14.7862 45.1378 12.72 42.589 12.72C40.0402 12.72 37.974 14.7862 37.974 17.335C37.974 19.8838 40.0402 21.95 42.589 21.95Z" fill="black"/>
<path d="M42.417 12.72H14.73V21.949H42.417V12.72Z" fill="black"/>
<path d="M14.767 44.6C17.3158 44.6 19.382 42.5338 19.382 39.985C19.382 37.4362 17.3158 35.37 14.767 35.37C12.2182 35.37 10.152 37.4362 10.152 39.985C10.152 42.5338 12.2182 44.6 14.767 44.6Z" fill="black"/>
<path d="M39.4762 13.9428L11.856 36.402L17.6801 43.5645L45.3003 21.1053L39.4762 13.9428Z" fill="black"/>
<path d="M42.59 44.565C45.1388 44.565 47.205 42.4988 47.205 39.95C47.205 37.4012 45.1388 35.335 42.59 35.335C40.0412 35.335 37.975 37.4012 37.975 39.95C37.975 42.4988 40.0412 44.565 42.59 44.565Z" fill="black"/>
<path d="M28.4916 23.1077L22.817 30.386L39.7513 43.5889L45.4259 36.3106L28.4916 23.1077Z" fill="black"/>
</g>
<defs>
<clipPath id="clip0_1_2">
<rect width="57.32" height="57.319" fill="white"/>
</clipPath>
</defs>
</svg>
